<mxfile host="app.diagrams.net" modified="2024-01-18T03:33:55.486Z" agent="Mozilla/5.0 (Windows NT 10.0; Win64; x64) AppleWebKit/537.36 (KHTML, like Gecko) Chrome/105.0.0.0 Safari/537.36" version="22.1.20" etag="t4OwJmgs94GEZJP7Kki7" type="github">
  <diagram name="第 1 页" id="JBR1qpF9EwZBARATdVvO">
    <mxGraphModel>
      <root>
        <mxCell id="0" />
        <mxCell id="1" parent="0" />
      </root>
    </mxGraphModel>
  </diagram>
</mxfile>
